<svg width="161" height="215" viewBox="0 0 161 215" fill="none" xmlns="http://www.w3.org/2000/svg">
<g clip-path="url(#clip0_24_2)">
<path d="M53.66 0H0V53.66H53.66V0Z" fill="#231F20"/>
<path d="M53.66 53.6599H0V107.32H53.66V53.6599Z" fill="#231F20"/>
<path d="M107.32 107.32H53.6599V160.98H107.32V107.32Z" fill="#231F20"/>
<path d="M53.66 160.98H0V214.64H53.66V160.98Z" fill="#231F20"/>
<path d="M107.32 0H53.6599V53.66H107.32V0Z" fill="#231F20"/>
<path d="M160.98 0H107.32V53.66H160.98V0Z" fill="#231F20"/>
<path d="M147.56 214.63C154.966 214.63 160.97 208.626 160.97 201.22C160.97 193.814 154.966 187.81 147.56 187.81C140.154 187.81 134.15 193.814 134.15 201.22C134.15 208.626 140.154 214.63 147.56 214.63Z" fill="#231F20"/>
</g>
<defs>
<clipPath id="clip0_24_2">
<rect width="160.98" height="214.63" fill="white"/>
</clipPath>
</defs>
</svg>
