<svg width="142" height="101" viewBox="0 0 142 101" fill="none" xmlns="http://www.w3.org/2000/svg">
<path d="M1 63.0811C1 63.2128 1 63.3445 8.9655 50.438C16.931 37.5315 32.862 11.5827 36.0241 16.9852C37.3236 19.2055 36.3849 26.8538 34.4813 36.4313M34.4813 36.4313C31.7529 50.1584 27.0422 67.8485 24.0979 79.2008C23.1249 82.9525 22.3564 85.969 21.7565 88.3893M34.4813 36.4313C37.059 30.498 37.6602 29.918 37.7459 30.1552C38.0114 30.8896 37.5659 32.4795 36.7925 40.2597C36.1126 47.0991 35.0505 59.4808 33.8356 67.9787C32.7232 75.7593 31.7302 80.2688 30.1303 83.8011M34.4813 36.4313C34.2548 36.9526 34.0131 37.5152 33.7551 38.1222C30.5609 45.6382 24.7195 60.1274 21.312 69.5014C16.5804 82.5183 16.5528 87.4213 17.6189 88.6188C18.2977 89.3812 19.7701 89.1891 21.7565 88.3893M21.7565 88.3893C19.2748 98.4025 19.6797 98.2135 20.433 97.6815C22.9042 95.9362 26.1919 91.5845 29.6718 84.755C29.8302 84.4441 29.9828 84.1268 30.1303 83.8011M21.7565 88.3893C23.9693 87.4983 26.8198 85.8531 29.9212 83.9327C29.9911 83.8895 30.0608 83.8456 30.1303 83.8011M30.1303 83.8011C33.1819 81.8492 35.8596 78.774 38.1744 75.8978C42.6478 70.3394 45.3735 63.9113 47.5841 58.3312C48.5326 55.9369 48.8654 54.3317 48.9378 54.5712C49.6198 56.8267 48.6039 63.1729 49.4025 69.0304C49.6583 70.9066 51.2631 70.1461 52.808 68.1603C54.3528 66.1745 56.2114 62.8815 58.4965 58.0897C60.7815 53.2979 63.4367 47.1071 64.539 45.5644C68.9189 39.4344 64.8286 58.5507 65.4964 59.5486C66.0463 60.3702 70.5614 55.9363 76.7226 49.2905C80.5905 45.1182 82.397 43.5267 82.4654 44.0476C82.5849 44.9582 82.1355 47.2029 82.2642 47.8954C82.391 48.5776 83.7366 44.7401 84.0726 42.3392C84.1783 41.5836 84.0062 47.0871 84.8711 51.0148C85.6713 54.6483 91.2889 50.1658 96.4149 46.0293M96.4149 46.0293C98.1032 44.667 99.7381 43.3422 101.13 42.3572C104.158 40.2142 106.748 36.801 108.981 33.3284C111.214 29.8558 112.807 26.1677 114.026 21.9626C116.544 13.2755 116.995 6.02651 116.997 2.36829C116.997 1.07451 116.468 0.949313 115.997 1.01318C114.952 1.15495 113.652 2.13878 111.582 4.386C110.131 5.96156 108.583 9.00417 103.445 24.2617C101.461 30.1558 98.9748 37.8812 96.4149 46.0293ZM96.4149 46.0293C92.3482 58.9738 88.0948 72.9851 85.368 82.416C83.8525 87.6571 82.8385 91.3865 82.1679 94.0192M82.1679 94.0192C80.8724 99.1059 80.859 100.099 80.9889 99.9926C81.1861 99.8309 81.7171 97.0648 81.9907 95.3105C82.0711 94.7949 82.1278 94.3739 82.1679 94.0192ZM82.1679 94.0192C82.2642 93.1674 82.2642 92.6982 82.2642 92.2191M29.1611 91.0215L141 59.8877" stroke="black" stroke-width="2" stroke-linecap="round"/>
</svg>
